<?xml version="1.0" encoding="UTF-8" standalone="no"?>
<svg
   id="a"
   viewBox="0 0 462.86998 138.02999"
   version="1.1"
   sodipodi:docname="fuzed-logo-white.svg"
   width="462.87"
   height="138.03"
   inkscape:version="1.3 (0e150ed6c4, 2023-07-21)"
   xmlns:inkscape="http://www.inkscape.org/namespaces/inkscape"
   xmlns:sodipodi="http://sodipodi.sourceforge.net/DTD/sodipodi-0.dtd"
   xmlns="http://www.w3.org/2000/svg"
   xmlns:svg="http://www.w3.org/2000/svg">
  <sodipodi:namedview
     id="namedview3"
     pagecolor="#ffffff"
     bordercolor="#000000"
     borderopacity="0.25"
     inkscape:showpageshadow="2"
     inkscape:pageopacity="0.0"
     inkscape:pagecheckerboard="0"
     inkscape:deskcolor="#d1d1d1"
     inkscape:zoom="3.3062519"
     inkscape:cx="231.37983"
     inkscape:cy="68.809034"
     inkscape:window-width="2560"
     inkscape:window-height="1494"
     inkscape:window-x="-11"
     inkscape:window-y="1609"
     inkscape:window-maximized="1"
     inkscape:current-layer="a" />
  <defs
     id="defs1">
    <style
       id="style1">.b{fill:#fff;}</style>
  </defs>
  <path
     class="b"
     d="m 330.54,77.21 c 0,-5.72 -2.57,-10.68 -7.51,-14.68 -4.94,-4.2 -10.67,-6.29 -17.58,-6.29 -7.31,0 -13.83,2.1 -19.17,6.1 -5.33,4.01 -8.3,8.96 -8.89,14.87 z m -77.26,10.3 c 0,-15.25 4.94,-27.46 14.62,-36.8 9.88,-9.34 22.32,-13.92 37.54,-13.92 14.42,0 26.28,4.57 35.37,13.92 9.29,9.34 13.83,20.78 13.83,34.51 0,2.86 -0.2,5.53 -0.4,8.01 h -77.45 c 0.79,15.25 12.45,25.17 30.03,25.17 10.28,0 19.17,-3.62 26.87,-11.06 l 14.23,13.35 c -11.26,11.44 -25.09,17.16 -41.89,17.16 -15.61,0 -28.45,-4.58 -38.13,-13.54 -9.68,-8.96 -14.62,-20.97 -14.62,-36.03 v -0.76 z"
     id="path1" />
  <path
     class="b"
     d="m 432.05,108.48 c 5.93,-5.53 8.89,-12.59 8.89,-20.98 0,-8.39 -2.96,-15.44 -8.89,-20.97 -5.73,-5.53 -13.04,-8.39 -21.54,-8.39 -8.5,0 -15.41,2.86 -21.14,8.39 -5.53,5.53 -8.3,12.59 -8.3,20.97 0,8.38 2.77,15.44 8.3,20.98 5.73,5.53 12.65,8.39 21.14,8.39 8.49,0 15.81,-2.86 21.54,-8.39 m 7.11,-55.1 V 2.66 h 23.71 v 132.89 h -23.71 v -13.92 c -3.36,9.34 -15.41,16.02 -31.81,16.02 -14.03,0 -25.89,-4.77 -35.56,-14.3 -9.48,-9.72 -14.23,-21.54 -14.23,-35.85 0,-14.31 4.74,-26.12 14.23,-35.65 9.68,-9.72 21.54,-14.49 35.56,-14.49 16.4,0 28.45,6.68 31.81,16.02"
     id="path2" />
  <path
     class="b"
     d="M 258.21,39.46 H 139.22 c -1.82,0 -3.29,1.42 -3.29,3.18 v 52.69 c 0,14.49 -8.49,21.73 -21.73,21.73 -13.24,0 -21.73,-7.05 -21.73,-21.54 V 42.65 c 0,-1.76 -1.48,-3.18 -3.3,-3.18 L 43.2,39.49 c -1.82,0 -3.29,-1.42 -3.29,-3.18 v -3.32 c 0,-9.72 9.56,-13.54 18.45,-13.54 6.23,0 14.35,1.31 16.12,1.88 V 2.67 C 71.51,2.1 62.17,0 53.73,0 40.95,0 32.4,2.09 27.07,6.29 19.36,12.2 16.2,20.02 16.2,34.7 v 1.59 c 0,1.76 -1.48,3.18 -3.29,3.18 H 0 v 20.78 h 12.91 c 1.82,0 3.29,1.42 3.29,3.18 v 72.13 H 39.91 V 63.43 c 0,-1.76 1.48,-3.18 3.29,-3.18 h 25.35 v 37.18 c 0,13.15 4.35,23.07 12.84,30.12 8.49,7.05 19.36,10.48 32.6,10.48 13.24,0 24.11,-3.43 32.8,-10.48 8.69,-7.05 13.04,-17.35 13.04,-30.7 V 59.86 h 56.88 l -59.67,75.69 h 98.4 v -20.4 h -56.51 z"
     id="path3" />
</svg>
