<?xml version="1.0" encoding="UTF-8" standalone="no"?>
<svg
   version="1.1"
   viewBox="0 0 1948 440.85535"
   width="285.35156"
   height="64.599609"
   id="svg300"
   sodipodi:docname="thhi-logo.svg"
   inkscape:version="1.3 (0e150ed6c4, 2023-07-21)"
   xmlns:inkscape="http://www.inkscape.org/namespaces/inkscape"
   xmlns:sodipodi="http://sodipodi.sourceforge.net/DTD/sodipodi-0.dtd"
   xmlns="http://www.w3.org/2000/svg"
   xmlns:svg="http://www.w3.org/2000/svg">
  <defs
     id="defs300" />
  <sodipodi:namedview
     id="namedview300"
     pagecolor="#ffffff"
     bordercolor="#000000"
     borderopacity="0.25"
     inkscape:showpageshadow="2"
     inkscape:pageopacity="0.0"
     inkscape:pagecheckerboard="0"
     inkscape:deskcolor="#d1d1d1"
     inkscape:zoom="3.9880822"
     inkscape:cx="182.79463"
     inkscape:cy="27.9583"
     inkscape:window-width="2560"
     inkscape:window-height="1494"
     inkscape:window-x="-11"
     inkscape:window-y="1609"
     inkscape:window-maximized="1"
     inkscape:current-layer="svg300" />
  <path
     d="m 1572,-0.09552375 10,1 64,15.99999975 54,14.000004 69,17 35,10 38,11 58,18 2,4 v 95 l 1,50 v 58 l -1,1 -41,1 h -349 l -1,26 v 60 H 1 l -1,-95 6,-1 445,-1 -1,-9 v -65 l -1,-4 7,-2 94,-14 76,-10 52,-8 43,9 28,6 1,-13 v -19 l 10,-2 120,-19 123,-19 40,-7 21,-3 60,15 6,2 1,-1 1,-42 -1,-3 6,-2 411,-71.0000038 z"
     fill="#155d90"
     id="path2" />
  <path
     d="m 1777,59.90448 9,1 40,11 65,20 3,2 3,193 -4,2 h -112 l -2,-2 v -44 h 16 l 16,1 h 12 l 1,-94 -15,-3 -35,-4 v 92 h -31 l -15,-1 -1,-1 -1,-40 v -58 l 1,-44 11,1 34,7 1,6 1,19 5,2 39,6 7,1 -1,-49 -24,-7 -20,-4 -3,-3 z"
     fill="#fcfcfd"
     id="path3" />
  <path
     d="m 1433,31.90448 h 8 v 34 l -1,7 -59,8 -4,2 2,92 v 57 l -1,1 -41,2 h -17 l -1,-10 -1,-80 5,-2 45,-5 6,-2 -1,-54 -30,4 -128,19 -7,1 h -8 l -1,-33 13,-3 63,-11 81,-14 47,-8 z"
     fill="#fbfcfd"
     id="path4" />
  <path
     d="m 1571,7.9044762 h 8 l 39,9.9999998 6,3 1,1 1,41.000004 -4,1 -37,-8 -5,-2 v 176 h 32 l 12,1 1,1 v 55 l -1,1 -106,1 -3,-1 -1,-4 v -52 l 59,-3 1,-65 1,-111 -58,10 -3,-1 V 18.904476 l 6,-2 44,-7.9999998 z"
     fill="#fbfcfd"
     id="path5" />
  <path
     d="m 1046,145.90448 h 11 l 1,2 v 101 l -3,1 -25,1 h -13 l -1,-12 v -21 l -8,1 -41,2 v 32 l -15,1 h -25 l -1,-3 v -89 l 9,-2 26,-3 h 6 v 28 l -1,5 16,-2 33,-3 1,-23 v -11 l 5,-2 z"
     fill="#fbfcfd"
     id="path6" />
  <path
     d="m 1238,158.90448 17,1 2,3 v 80 l 3,-1 h 24 l 2,44 h -82 v -23 l 6,-1 h 26 v -47 l -1,-14 -2,-1 -34,-3 1,31 v 29 l -1,6 1,2 1,21 h -5 l -1,-1 -1,-44 -23,1 -3,-2 1,-73 2,-1 37,7 27,4 3,1 -1,-5 v -13 z"
     fill="#fbfcfd"
     id="path7" />
  <path
     d="m 1065,144.90448 17,3 47,10 1,1 v 97 l -2,1 -6,-2 -46,-3 -9,-1 -1,-1 -1,-9 z"
     fill="#fbfcfd"
     id="path8" />
  <path
     d="m 1571,7.9044762 h 8 l 39,9.9999998 6,3 1,1 1,41.000004 -4,1 -37,-8 -9,-2 -12,1 -47,8 -3,-1 V 18.904476 l 6,-2 44,-7.9999998 z"
     fill="#fcfcfd"
     id="path9" />
  <path
     d="m 668,200.90448 h 8 v 64 l -3,1 h -25 l -3,-2 h 3 l -1,-17 -5,-1 h -14 l -19,1 v 18 h 5 l 1,-14 1,-1 h 26 l 1,4 v 11 l -1,1 -38,1 h -23 v -47 l 1,-9 1,-1 17,-2 h 8 l 1,1 1,19 26,-2 10,-2 1,-21 5,-1 z"
     fill="#fafcfd"
     id="path10" />
  <path
     d="m 960,126.90448 h 7 v 24 l -5,2 -76,9 -80,11 -10,1 -1,-1 v -20 l 9,-2 80,-12 z"
     fill="#effefe"
     id="path11" />
  <path
     d="m 477,220.90448 h 5 v 19 l 27,-3 5,1 1,38 2,-1 22,-2 h 4 l 1,13 h -89 l -1,-2 v -6 l 1,-1 7,-1 h 20 l 3,2 1,-4 -29,-1 -1,-1 v -47 l 3,-2 z"
     fill="#fbfcfd"
     id="path12" />
  <path
     d="m 1017,254.90448 h 50 l 23,2 31,2 8,1 1,1 v 24 l -1,1 h -113 z"
     fill="#fbfcfd"
     id="path13" />
  <path
     d="m 871,167.90448 5,1 v 87 l -1,1 -34,1 -1,-1 -1,-84 8,-2 z"
     fill="#fbfcfd"
     id="path14" />
  <path
     d="m 1054,111.90448 h 13 l 29,7 33,8 1,1 v 25 l -9,-1 -47,-9 -10,-2 h -13 l -30,4 -5,-1 v -25 z"
     fill="#fbfcfd"
     id="path15" />
  <path
     d="m 1418,235.90448 h 24 l 1,1 v 49 l -42,1 h -17 l -1,-1 -1,-47 2,-2 z"
     fill="#fcfcfd"
     id="path16" />
  <path
     d="m 1504,233.90448 h 3 l 1,22 v 30 h -58 v -48 l 5,-1 z"
     fill="#fcfcfd"
     id="path17" />
  <path
     d="m 1500,179.90448 h 6 l 1,1 v 47 l -11,1 -42,2 -6,1 -1,-1 -1,-19 v -27 l 1,-1 24,-2 z"
     fill="#fbfcfd"
     id="path18" />
  <path
     d="m 1498,70.90448 h 8 l 1,1 v 45 l -4,2 -50,5 h -6 l -1,-1 v -22 l 1,-24 z"
     fill="#fbfcfd"
     id="path19" />
  <path
     d="m 684,201.90448 h 9 l 9,1 1,1 1,21 12,3 h 8 l 7,-2 1,-1 2,-16 16,1 1,1 v 56 h -19 l -1,-19 -3,-3 -8,-2 h -10 l -5,2 -2,7 -1,14 h -17 l -1,-26 z"
     fill="#fafcfd"
     id="path20" />
  <path
     d="m 1504,19.904476 3,1 V 62.90448 l -10,2 -40,5 h -9 v -20 l 1,-19 5,-2 46,-8.000004 z"
     fill="#fbfcfd"
     id="path21" />
  <path
     d="m 825,202.90448 h 9 l 1,82 -1,1 h -49 l -1,-2 v -9 h 23 l 1,-67 -1,-4 z"
     fill="#fafcfd"
     id="path22" />
  <path
     d="m 732,408.90448 h 10 l 4,6 5,-2 h 4 l 1,2 4,-5 13,-1 2,1 v 3 h 2 v 2 l 5,2 1,18 11,2 7,-2 1,-2 -4,-5 1,-4 2,-1 v -9 h -12 l 1,7 4,3 -1,5 -6,-2 -2,-5 1,-8 4,-4 2,-1 h 9 l 5,11 4,-3 5,2 1,-5 5,-5 h 8 l 5,2 2,5 1,9 -4,2 v -3 h 2 l -1,-3 -3,3 -2,4 h -5 l 1,-5 5,-4 2,-2 -3,-4 -7,1 -2,3 -1,9 v 9 l 1,1 h 9 l 7,-1 -1,5 -1,1 h -13 l -5,-5 -2,-5 h -2 l -1,5 -7,2 -2,2 -4,1 h -13 l -1,-3 -3,1 -5,-2 -3,1 v 2 l -2,1 h -12 l -2,-1 v -2 l -9,-1 h -3 l -4,4 h -10 l -5,-4 -3,-7 v -9 l 3,-8 z"
     fill="#d6f9ff"
     id="path23" />
  <path
     d="m 917,194.90448 h 4 l 1,59 -1,1 -24,1 h -15 l -1,-1 v -53 l 2,-4 z"
     fill="#fbfcfd"
     id="path24" />
  <path
     d="m 1138,159.90448 12,1 12,2 1,1 v 77 l -1,1 -25,1 -1,-1 v -47 l 1,-34 z"
     fill="#fafcfd"
     id="path25" />
  <path
     d="m 1728,240.90448 42,1 2,1 1,9 v 35 l -1,1 h -42 l -1,-1 z"
     fill="#fbfcfd"
     id="path26" />
  <path
     d="m 1631,70.90448 12,2 26,5 3,3 v 44 l -11,-1 -29,-5 -3,-2 v -28 l 1,-17 z"
     fill="#fbfcfd"
     id="path27" />
  <path
     d="m 1629,180.90448 h 12 l 30,3 2,3 v 23 l -1,18 -2,2 -25,-2 -15,-1 -1,-1 z"
     fill="#fbfcfd"
     id="path28" />
  <path
     d="m 1676,33.90448 8,1 32,8 7,3 1,2 1,22 v 14 l -4,1 -39,-8 -5,-2 -1,-2 z"
     fill="#fbfcfd"
     id="path29" />
  <path
     d="m 1680,239.90448 h 17 l 20,1 3,1 1,31 v 14 l -1,1 h -39 l -2,-3 v -41 z"
     fill="#fafcfd"
     id="path30" />
  <path
     d="m 847,308.90448 h 14 l 4,2 19,-2 h 30 l 1,5 -1,3 h -15 l -1,34 -2,1 h -6 l -2,-34 -18,-1 -3,-2 2,3 v 32 l -5,3 -5,-1 -1,-4 v -30 h -15 l -2,1 -1,5 -1,26 -2,2 h -7 l -1,-23 -1,-10 -1,-2 h -2 l -1,2 -6,-2 -5,-4 v -2 l 2,-1 z"
     fill="#d6f9ff"
     id="path31" />
  <path
     d="m 605,187.90448 h 4 v 14 l -1,1 -32,4 -22,2 -62,7 h -6 v -11 l 17,-3 72,-10 z"
     fill="#d6f9fe"
     id="path32" />
  <path
     d="m 960,126.90448 h 7 v 24 l -5,2 -76,9 -80,11 -10,1 v -14 l 4,2 2,2 h 11 l 19,-2 18,-3 26,-2 18,-3 24,-5 15,-4 16,-8 10,-4 z"
     fill="#fafcfd"
     id="path33" />
  <path
     d="m 789,208.90448 h 12 l 1,1 v 18 l -1,1 h -20 l -1,38 -1,1 -9,1 h -11 l -1,-1 -1,-28 v -18 l 1,-10 12,2 8,3 4,5 3,1 -1,-13 z"
     fill="#fafcfd"
     id="path34" />
  <path
     d="m 1191,75.90448 h 2 v 31 l -26,4 -22,4 -3,1 -1,-1 v -14 l 1,-16 20,-4 z"
     fill="#fbfcfd"
     id="path35" />
  <path
     d="m 1633,23.904476 9,1 21,6.000004 5,3 1,2 1,22 v 15 l -14,-2 -21,-4 -3,-1 z"
     fill="#fbfcfd"
     id="path36" />
  <path
     d="m 1780,78.90448 8,1 25,7 4,4 1,3 v 30 l -16,-1 -21,-3 -2,-4 v -35 z"
     fill="#fbfcfd"
     id="path37" />
  <path
     d="m 636,309.90448 h 18 l 6,4 4,5 v 9 l -2,3 -4,-2 -6,-9 -5,-2 -3,2 v 22 l -1,9 -7,1 -14,-1 -3,-3 -6,-12 -3,-3 1,6 -5,2 -4,-2 -5,1 -3,9 -2,2 h -10 l 8,-16 7,-16 5,-7 h 8 l 4,4 12,23 3,8 h 4 l 1,-36 z"
     fill="#f8fcfd"
     id="path38" />
  <path
     d="m 1206,201.90448 h 15 l 10,2 1,3 v 50 h -27 v -54 z"
     fill="#fafcfd"
     id="path39" />
  <path
     d="m 263,409.90448 h 12 l 4,4 2,11 v 3 h 2 l 1,-9 5,-5 6,-4 h 11 l 5,2 3,4 1,7 v 10 l -2,6 -6,2 h -12 l -2,-4 -4,3 -4,-1 -2,-3 v -3 h -2 l -2,6 -6,2 h -11 l -2,-1 -1,-5 v -10 l 1,-3 4,-1 6,1 7,-1 -3,-5 -13,-2 v -3 z"
     fill="#ecfeff"
     id="path40" />
  <path
     d="m 541,213.90448 h 2 v 54 l -1,1 -8,1 h -15 l -1,-25 v -28 l 13,-2 z"
     fill="#fafcfd"
     id="path41" />
  <path
     d="m 991,222.90448 h 20 l 1,3 v 25 l -1,1 -13,1 h -26 l -1,-10 v -17 l 5,-2 z"
     fill="#fafcfd"
     id="path42" />
  <path
     d="m 1009,150.90448 h 2 v 30 l -14,2 -25,2 -1,-1 v -27 l 7,-2 z"
     fill="#fafcfd"
     id="path43" />
  <path
     d="m 931,257.90448 h 36 l 1,1 1,26 -1,1 h -41 l -1,-5 1,-22 z"
     fill="#fbfcfd"
     id="path44" />
  <path
     d="m 103,308.90448 h 24 l 3,1 v 24 l -21,1 1,9 h 15 l 3,-1 2,-3 2,7 -1,5 -7,2 h -13 l -8,-2 -3,-3 -1,-4 v -18 l 1,-16 z"
     fill="#d6f9fe"
     id="path45" />
  <path
     d="m 1289,240.90448 h 25 l 1,1 v 43 l -1,1 h -23 l -2,-34 z"
     fill="#fbfcfd"
     id="path46" />
  <path
     d="m 911,162.90448 h 10 v 28 l -20,2 -11,1 h -9 l -1,-26 4,-2 z"
     fill="#fbfcfd"
     id="path47" />
  <path
     d="m 988,256.90448 h 23 l 1,29 h -39 l -1,-1 v -26 l 1,-1 z"
     fill="#fbfcfd"
     id="path48" />
  <path
     d="m 732,408.90448 h 10 l 4,6 5,-2 h 4 l 1,2 2,-1 1,10 -1,2 h 7 l 5,-1 2,5 v 6 l 2,2 -3,3 h -12 l -2,-1 v -2 l -9,-1 h -3 l -4,4 h -10 l -5,-4 -3,-7 v -9 l 3,-8 z"
     fill="#d6f9ff"
     id="path49" />
  <path
     d="m 263,310.90448 h 7 l 3,3 v 31 l -2,5 -3,2 -6,-1 -7,-7 -10,-14 -5,-3 v 19 h 4 l -1,4 -9,1 -4,-3 v -21 l 1,-14 1,-1 h 10 l 10,9 9,14 1,1 z"
     fill="#d6f9ff"
     id="path50" />
  <path
     d="m 768,309.90448 h 6 l 2,6 2,22 v 12 l -2,2 h -8 l -7,-9 -7,-7 -4,-8 -4,-2 -2,21 h 3 l -2,4 -2,1 h -7 l -2,-4 1,-14 1,-19 1,-3 h 10 l 13,13 7,10 1,-4 -1,-20 z"
     fill="#d6f9ff"
     id="path51" />
  <path
     d="m 914,258.90448 h 7 l 1,2 v 24 l -1,1 h -40 v -24 l 4,-2 z"
     fill="#fafcfd"
     id="path52" />
  <path
     d="m 1009,119.90448 h 3 v 25 l -2,2 -20,3 -9,1 h -10 v -25 z"
     fill="#f9fcfd"
     id="path53" />
  <path
     d="m 566,230.90448 h 9 l 1,1 v 35 l -3,1 -26,1 v -27 l 1,-9 z"
     fill="#f9fcfd"
     id="path54" />
  <path
     d="m 1169,137.90448 10,1 15,4 1,18 h 9 l 2,-5 2,-1 h 18 l 6,1 1,6 v 6 l 2,-1 v 5 h -8 l -22,-4 -25,-5 -10,-3 z"
     fill="#fafcfd"
     id="path55" />
  <path
     d="m 674,176.90448 15,2 13,3 1,5 -1,12 -18,-1 -7,-1 -17,1 h -13 l -1,-4 v -12 z"
     fill="#d6f9ff"
     id="path56" />
  <path
     d="m 672,309.90448 h 40 l 8,2 3,9 1,9 v 18 l -2,4 h -8 v -18 l -1,-15 -1,-2 h -10 l -5,2 -1,2 -1,29 -2,2 h -5 l -1,-1 -3,-30 v -4 l -9,2 -4,-3 v -5 z"
     fill="#d6f9ff"
     id="path57" />
  <path
     d="m 179,310.90448 h 8 l 2,3 v 11 h 22 l -1,-13 h 9 l 1,1 1,21 v 15 l -1,2 h -8 l -2,-3 1,-13 h -20 l -2,9 -1,7 -2,2 h -6 l -1,-21 z"
     fill="#d6f9ff"
     id="path58" />
  <path
     d="m 654,399.90448 h 8 l 5,4 3,7 v 21 l -4,6 -6,3 h -7 l -5,-4 -5,-10 v -15 l 3,-7 5,-4 z"
     fill="#f7fcfd"
     id="path59" />
  <path
     d="m 831,172.90448 h 2 l 1,25 -1,1 -35,1 -3,-3 v -16 l 1,-4 z"
     fill="#fafcfd"
     id="path60" />
  <path
     d="m 573,308.90448 5,1 v 40 l -2,2 -6,-1 -1,-2 v -14 l -22,-1 -1,13 -3,5 -6,-1 -1,-2 v -38 l 1,-1 h 7 l 1,1 1,14 22,1 h 2 v -12 z"
     fill="#d6f9ff"
     id="path61" />
  <path
     d="m 871,260.90448 h 5 v 25 h -37 v -11 l 1,-13 z"
     fill="#fbfcfd"
     id="path62" />
  <path
     d="m 377,310.90448 h 8 l 1,1 v 13 h 21 l 1,-13 7,-1 2,1 v 36 l -2,3 h -6 l -1,-2 v -14 h -21 l -2,16 -2,1 h -6 z"
     fill="#d6f9ff"
     id="path63" />
  <path
     d="m 657,269.90448 h 44 l 1,1 v 15 l -1,1 -54,-1 v -14 l 1,-1 z"
     fill="#fafcfd"
     id="path64" />
  <path
     d="m 447,310.90448 h 8 l 1,14 21,1 -1,-15 h 9 l 1,1 v 37 l -2,3 h -6 l -1,-1 v -17 h -22 v 17 l -5,1 -3,-1 z"
     fill="#eafdff"
     id="path65" />
  <path
     d="m 918,309.90448 h 6 l 2,3 2,30 4,1 h 15 l 1,-34 h 10 v 27 l -2,8 -5,5 -9,3 h -13 l -6,-4 -4,-6 -1,-10 z"
     fill="#d6f9ff"
     id="path66" />
  <path
     d="m 1003,308.90448 6,1 -2,29 -3,10 -5,3 -4,1 h -15 l -6,-4 -4,-6 -2,-9 v -23 l 1,-1 h 8 l 1,3 v 22 l 2,7 3,2 h 10 l 4,-2 1,-2 2,-29 z"
     fill="#edfeff"
     id="path67" />
  <path
     d="m 783,178.90448 h 8 v 18 l -1,8 -16,4 h -9 l -7,-1 -1,-10 1,-3 12,1 14,3 4,-2 -11,-3 -19,-2 -3,-3 v -7 z"
     fill="#d6f9ff"
     id="path68" />
  <path
     d="m 921,409.90448 h 12 l 3,4 v 26 l 7,-2 1,-5 v -17 l 8,-5 h 7 l 3,2 -10,4 -2,6 -2,16 -6,2 h -22 l -5,-5 -1,-5 v -11 l 3,-7 z"
     fill="#f2fcfd"
     id="path69" />
  <path
     d="m 619,399.90448 9,1 4,6 2,20 v 7 l -4,5 -4,2 h -7 l -5,-3 -4,-6 v -5 l 3,-9 -2,-4 1,-8 4,-5 z"
     fill="#155d90"
     id="path70" />
  <path
     d="m 1188,113.90448 h 5 l 1,1 v 23 l -8,-1 -21,-6 -24,-4 -2,-1 v -4 l 21,-4 z"
     fill="#f8fcfd"
     id="path71" />
  <path
     d="m 901,398.90448 3,1 1,17 -1,14 -2,7 -7,3 h -11 l -2,-1 -2,-7 v -15 l 3,-7 2,-1 14,-1 z"
     fill="#155d90"
     id="path72" />
  <path
     d="m 422,399.90448 h 8 l 3,2 1,6 -4,-2 -7,-1 h -2 l -3,9 17,1 3,7 1,10 -3,5 -8,3 h -9 l -6,-5 -2,-7 v -11 l 7,-14 z"
     fill="#155d90"
     id="path73" />
  <path
     d="m 314,309.90448 h 7 l 6,2 v 6 l -3,2 -11,-3 1,6 5,3 5,2 4,5 v 11 l -6,7 -8,2 h -10 l -3,-2 -1,-7 -1,-2 h 3 l 1,2 h 10 l 4,-2 v -6 l -8,-2 -5,-4 -2,-4 1,-9 2,-5 z"
     fill="#d6f9ff"
     id="path74" />
  <path
     d="m 1458,398.90448 5,1 1,4 -13,2 -3,3 -1,6 10,-1 7,2 2,3 1,5 v 8 l -4,6 -7,3 -9,-1 -5,-6 -2,-11 1,-10 6,-9 5,-3 z"
     fill="#155d90"
     id="path75" />
  <path
     d="m 988,409.90448 h 15 l 3,3 1,2 v 18 l -3,5 -7,3 h -8 l -5,-3 -2,-5 v -18 l 3,-4 z"
     fill="#f9fcfd"
     id="path76" />
  <path
     d="m 158,309.90448 h 7 l 5,2 1,1 v 6 h -12 l -8,2 -2,3 v 12 l 3,5 9,3 7,-1 5,-4 1,10 -4,4 h -15 l -8,-3 -6,-7 -2,-5 v -14 l 3,-6 7,-6 z"
     fill="#d6f9ff"
     id="path77" />
  <path
     d="m 788,153.90448 h 3 v 21 l -23,3 h -12 v -17 l 9,-3 z"
     fill="#fbfcfd"
     id="path78" />
  <path
     d="m 1139,128.90448 26,6 v 23 l -3,1 -23,-3 -2,-1 v -23 z"
     fill="#f9fcfd"
     id="path79" />
  <path
     d="m 806,309.90448 h 4 l 1,3 -2,6 h -11 l -3,3 12,7 3,3 1,10 -2,6 -4,4 -4,1 h -11 l -3,-3 -1,-9 4,1 2,2 10,-1 -2,-6 -6,-3 -5,-2 -2,-3 v -11 l 2,-6 3,-1 z"
     fill="#d6f9ff"
     id="path80" />
  <path
     d="m 349,310.90448 h 18 l 1,1 v 6 h -11 l -8,2 -2,6 v 10 l 4,5 4,2 h 11 l 6,-2 -2,9 -3,2 -5,1 h -9 l -8,-4 -6,-7 -2,-6 v -13 l 6,-8 z"
     fill="#d6f9ff"
     id="path81" />
  <path
     d="m 636,309.90448 h 18 l 6,4 4,5 v 9 l -2,3 -4,-2 -6,-9 -5,-2 -3,2 v 22 l -1,9 -7,1 -14,-1 v -1 h 5 l 1,-3 h 5 l 1,-36 z"
     fill="#d6f9fe"
     id="path82" />
  <path
     d="m 801,233.90448 h 1 l 1,13 v 22 l -1,1 h -15 l -4,-1 1,-32 1,-1 h 15 z"
     fill="#f7fcfd"
     id="path83" />
  <path
     d="m 1014,309.90448 h 40 l 1,5 -3,2 -13,1 -1,1 -2,30 -2,3 -6,-1 -1,-1 v -22 l -1,-10 -12,-2 -3,-3 v -2 z"
     fill="#d6f9ff"
     id="path84" />
  <path
     d="m 55,309.90448 h 39 l 2,4 -2,4 H 80 l -1,32 -1,2 h -7 l -1,-1 v -30 l -1,-2 -14,-4 -1,-4 z"
     fill="#d7f9ff"
     id="path85" />
  <path
     d="m 247,398.90448 4,1 -1,8 -1,27 -5,5 -5,1 h -11 l -2,-6 -1,-22 -6,1 -9,2 -2,1 -1,23 -5,-1 v -25 l 3,-3 5,-1 h 15 l 2,-7 4,4 1,6 -1,18 2,5 9,1 2,-3 1,-26 1,-8 z"
     fill="#155d90"
     id="path86" />
  <path
     d="m 263,409.90448 h 12 l 4,4 2,11 v 10 l -3,5 -5,1 h -11 l -2,-1 -1,-5 v -10 l 1,-3 4,-1 6,1 7,-1 -3,-5 -13,-2 v -3 z"
     fill="#155d90"
     id="path87" />
  <path
     d="m 1117,404.90448 h 9 l 4,5 1,3 v 18 l -5,5 h -8 l -3,-2 -1,-3 v -21 z"
     fill="#fafcfd"
     id="path88" />
  <path
     d="m 1332,402.90448 5,2 3,10 v 15 l -4,6 -1,1 h -6 l -4,-4 -2,-9 v -12 l 2,-5 4,-3 z"
     fill="#fafcfd"
     id="path89" />
  <path
     d="m 636,203.90448 h 6 v 17 l -10,2 h -17 l -1,-3 v -13 z"
     fill="#f9fcfd"
     id="path90" />
  <path
     d="m 1208,154.90448 h 18 l 6,1 1,6 v 6 l 2,-1 v 5 h -8 l -22,-4 -11,-3 1,-4 h 9 l 2,-5 z"
     fill="#f8fcfd"
     id="path91" />
  <path
     d="m 1540,326.90448 h 11 l 3,3 1,10 v 10 l -3,3 -3,1 h -11 l -3,-3 1,-20 1,-3 z"
     fill="#155d90"
     id="path92" />
  <path
     d="m 641,182.90448 2,2 v 14 l -10,2 -11,1 h -9 v -15 z"
     fill="#d6f9ff"
     id="path93" />
  <path
     d="m 1248,398.90448 6,1 v 4 l -12,3 -3,3 -2,4 h 4 v 2 h -3 v 12 l 2,6 8,1 6,-4 v -7 l -3,-3 -6,-2 -3,-4 h 12 l 4,5 1,2 v 7 l -3,8 -4,3 -3,1 h -7 l -8,-7 -2,-7 v -14 l 4,-8 8,-5 z"
     fill="#155d90"
     id="path94" />
  <path
     d="m 1329,398.90448 h 7 l 5,5 4,12 -1,15 -3,6 -4,4 h -10 l -6,-5 -2,-5 -1,-6 v -11 l 3,-10 5,-4 z m 3,4 -6,3 -2,2 -1,4 v 12 l 2,9 4,4 h 6 l 4,-5 1,-2 v -15 l -3,-10 z"
     fill="#155d90"
     id="path95" />
  <path
     d="m 619,270.90448 h 23 l 1,3 v 10 l -1,2 h -29 v -13 z"
     fill="#f9fcfd"
     id="path96" />
  <path
     d="m 1116,399.90448 h 11 l 5,5 2,3 1,5 v 15 l -3,9 -3,3 -10,1 -6,-3 -3,-5 -1,-5 v -13 l 2,-10 z m 1,5 -3,5 v 21 l 2,4 2,1 h 8 l 5,-5 v -18 l -3,-6 -2,-2 z"
     fill="#155d90"
     id="path97" />
  <path
     d="m 76,400.90448 3,1 v 36 l -5,1 v -18 l -20,1 -1,17 h -6 v -36 h 6 v 11 l 1,2 h 20 v -11 z"
     fill="#155d90"
     id="path98" />
  <path
     d="m 589,270.90448 h 19 l 1,1 v 14 h -28 l -1,-1 v -8 l 1,-5 z"
     fill="#fafcfd"
     id="path99" />
  <path
     d="m 654,399.90448 h 8 l 5,4 3,7 v 21 l -4,6 -6,3 h -7 l -5,-4 -5,-10 v -15 l 3,-7 5,-4 z m -1,5 -5,5 -2,6 v 8 l 3,7 5,5 4,1 6,-4 2,-3 v -17 l -3,-6 -3,-2 z"
     fill="#155d90"
     id="path100" />
  <path
     d="m 824,411.90448 h 5 l 4,6 -8,6 -1,4 5,-1 2,-4 h 2 l 1,-3 1,4 h -2 v 3 l 3,-2 3,-6 4,-1 v 12 l -3,5 h -3 l -1,2 v -2 l -7,2 h -9 l -2,-2 v -9 l 1,-9 z"
     fill="#d7f9ff"
     id="path101" />
  <path
     d="m 537,309.90448 h 7 l 1,1 1,14 10,1 v 1 l -5,1 1,6 h -5 l -1,13 -3,5 -6,-1 -1,-2 v -38 z"
     fill="#d6f9ff"
     id="path102" />
  <path
     d="m 969,309.90448 h 8 l 1,3 v 22 l 2,7 3,2 h 10 l 4,-2 1,-2 1,-11 h 1 l 1,14 -4,4 h -12 l -6,1 -4,-1 h -3 l -3,-7 -1,-6 v -23 z"
     fill="#d6f9ff"
     id="path103" />
  <path
     d="m 712,245.90448 h 10 l 4,2 2,8 1,10 h -23 v -9 l 2,-8 z"
     fill="#f8fcfd"
     id="path104" />
  <path
     d="m 1575,52.90448 5,1 v 113 h -1 v -48 h -3 v 26 h -1 z"
     fill="#d6f9ff"
     id="path105" />
  <path
     d="m 506,216.90448 h 6 v 15 l -2,1 -18,2 h -6 v -14 l 5,-2 z"
     fill="#edfeff"
     id="path106" />
  <path
     d="m 707,204.90448 h 9 l 12,3 1,1 v 10 l -1,4 -6,2 h -9 l -6,-3 z"
     fill="#f8fcfd"
     id="path107" />
  <path
     d="m 564,271.90448 h 12 v 13 l -1,1 h -27 l -1,-1 v -12 z"
     fill="#fafcfd"
     id="path108" />
  <path
     d="m 779,410.90448 4,1 3,3 v 7 l 2,5 5,1 v -4 l -4,-3 v -7 l 7,-1 5,1 1,2 v 7 l -3,2 1,4 3,5 -4,3 -6,1 -7,-1 -3,-2 -1,-4 -1,-14 -4,-2 v -3 z"
     fill="#f9fcfd"
     id="path109" />
  <path
     d="m 583,399.90448 h 8 l 6,3 3,7 1,10 -3,9 -4,8 -3,3 -3,1 h -8 l -1,-5 10,-2 2,-2 -1,-8 6,-4 1,-6 -3,-6 -4,-4 -3,-1 -5,3 -3,4 v 8 l 4,3 h 3 l 1,-6 h 1 v 9 l -3,2 h -4 l -7,-10 1,-7 5,-8 z"
     fill="#155d90"
     id="path110" />
  <path
     d="m 561,211.90448 h 13 v 13 l -24,5 h -2 v -16 z"
     fill="#f9fcfd"
     id="path111" />
  <path
     d="m 476,310.90448 h 9 l 1,1 v 37 l -2,3 h -6 l -1,-1 v -18 l -1,-6 h -17 v -1 h 18 z"
     fill="#d7f9fe"
     id="path112" />
  <path
     d="m 1358,399.90448 h 13 l 5,5 3,9 -9,11 -7,8 -1,3 h 18 l -1,4 -2,1 h -18 l -4,-3 -1,-6 7,-3 8,-10 3,-4 v -8 l -1,-1 h -11 l -6,1 2,-5 z"
     fill="#155d90"
     id="path113" />
  <path
     d="m 789,208.90448 h 12 l 1,1 v 18 l -1,1 h -20 l -1,4 v -9 l 4,-2 1,1 -1,-13 z"
     fill="#f7fcfd"
     id="path114" />
  <path
     d="m 587,401.90448 6,3 4,6 1,7 -5,5 -3,4 -8,4 -5,1 -1,-5 4,-1 1,-2 v 2 l 6,-2 v -3 l -4,1 -5,-4 v -8 l 5,-6 z"
     fill="#f8fcfd"
     id="path115" />
  <path
     d="m 283,310.90448 h 7 l 2,4 v 36 l -2,1 h -6 l -1,-1 z"
     fill="#d6f9ff"
     id="path116" />
  <path
     d="m 831,172.90448 h 2 v 19 h -1 l -1,-11 -3,5 -2,3 -20,-2 -4,-3 -2,-5 -4,-2 z"
     fill="#ecfefe"
     id="path117" />
  <path
     d="m 706,184.90448 9,1 14,3 1,1 v 8 l -1,6 -21,-3 -2,-1 z"
     fill="#f7fcfd"
     id="path118" />
  <path
     d="m 706,270.90448 h 22 l 1,1 v 14 h -23 l -1,-13 z"
     fill="#fafcfd"
     id="path119" />
  <path
     d="m 295,409.90448 h 11 l 5,2 3,4 1,7 v 10 l -2,6 -6,2 h -12 l -2,-7 v -10 l 2,-2 h 8 l 1,2 -7,9 v 3 h 10 l 3,-3 v -7 l -1,-2 -4,-2 4,-1 v -5 l -16,-2 z"
     fill="#155d90"
     id="path120" />
  <path
     d="m 889,412.90448 h 10 l 1,1 v 14 l -2,7 -2,2 h -9 l -3,-2 v -15 l 3,-6 z"
     fill="#f8fcfd"
     id="path121" />
  <path
     d="m 988,409.90448 h 15 l 3,3 1,2 v 18 l -3,5 -7,3 h -8 l -5,-3 -2,-5 v -18 l 3,-4 z m 1,4 -2,1 -1,3 v 14 l 3,5 5,1 7,-3 2,-3 v -13 l -2,-4 -2,-1 z"
     fill="#155d90"
     id="path122" />
  <path
     d="m 921,409.90448 h 12 l 3,4 v 14 l -2,3 -6,-4 -1,-3 6,-8 -5,-2 -7,1 -1,19 1,2 h 14 l -1,5 h -14 l -5,-5 -1,-5 v -11 l 3,-7 z"
     fill="#155d90"
     id="path123" />
  <path
     d="m 177,409.90448 h 10 l 2,3 2,14 v 9 l -2,4 -3,1 h -15 l -1,-3 v -13 l 3,-5 h 4 l -1,8 -1,7 2,2 h 6 l 3,-1 -1,-11 -2,-6 h 2 l -3,-4 h -9 l 2,-4 z"
     fill="#155d90"
     id="path124" />
  <path
     d="m 821,408.90448 h 8 l 5,2 2,5 1,9 -4,2 v -3 h 2 l -1,-3 -3,3 -2,4 h -5 l 1,-5 5,-4 2,-2 -3,-4 -7,1 -2,3 -1,9 v 9 l 1,1 h 9 l 7,-1 -1,5 -1,1 h -13 l -5,-5 -3,-5 v -7 l 3,-10 z"
     fill="#155d90"
     id="path125" />
  <path
     d="m 732,408.90448 h 10 l 3,4 1,6 -3,8 -1,1 h -6 l 1,-5 6,-5 -3,-5 h -7 l -3,2 v 6 l 2,4 -3,6 v 4 l 7,1 8,-1 -1,5 -2,1 h -10 l -5,-4 -3,-7 v -9 l 3,-8 z"
     fill="#155d90"
     id="path126" />
  <path
     d="m 792,408.90448 h 9 l 5,11 4,-3 4,2 -1,12 -2,5 h -6 l -4,-20 v -2 h -12 l 1,7 4,3 -1,5 -6,-2 -2,-5 1,-8 4,-4 z"
     fill="#ebfdfe"
     id="path127" />
  <path
     d="m 1152,402.90448 h 7 l 2,1 v 13 l 1,16 -5,3 7,-1 1,5 -1,1 h -15 l -1,-2 6,-8 1,-6 v -11 l -5,-6 1,-4 z"
     fill="#155d90"
     id="path128" />
  <path
     d="m 1766,332.90448 h 9 l 2,4 v 12 l -2,4 -13,1 -1,-1 v -12 l 1,-6 z"
     fill="#f3fcfd"
     id="path129" />
  <path
     d="m 1408,399.90448 h 19 l 3,2 -1,9 -7,16 -6,10 -4,3 h -4 l 2,-5 9,-15 5,-9 -1,-5 -8,-1 -9,1 1,-5 z"
     fill="#155d90"
     id="path130" />
  <path
     d="m 462,275.90448 h 20 l 3,2 v 7 l -1,1 h -29 l -1,-2 v -6 l 1,-1 z"
     fill="#f6fcfd"
     id="path131" />
  <path
     d="m 420,416.90448 8,1 5,3 2,4 v 7 l -7,3 h -8 l -5,-5 v -9 z"
     fill="#f9fcfd"
     id="path132" />
  <path
     d="m 329,409.90448 h 18 l 2,3 2,26 -4,1 -1,-4 -2,-19 -1,-2 -9,-1 -2,4 -2,23 h -3 v -27 z"
     fill="#155d90"
     id="path133" />
  <path
     d="m 385,402.90448 h 6 l 2,6 v 18 l 1,7 6,5 -1,2 h -18 l 2,-4 3,-4 1,-8 -1,-13 -3,-5 -1,-3 z"
     fill="#155d90"
     id="path134" />
  <path
     d="m 650,323.90448 4,1 4,6 3,7 8,7 v 5 l -2,2 -7,-1 -5,-4 -7,-11 v -9 z"
     fill="#d6f9ff"
     id="path135" />
  <path
     d="m 851,409.90448 h 14 l 3,2 2,15 v 12 h -5 v -11 l -2,-12 -5,-2 -5,1 -1,1 -1,10 v 14 l -5,-1 v -14 l 1,-11 z"
     fill="#155d90"
     id="path136" />
  <path
     d="m 758,272.90448 h 21 l 1,2 v 11 h -21 l -1,-2 z"
     fill="#f7fcfd"
     id="path137" />
  <path
     d="m 479,205.90448 h 4 l 1,10 -6,2 -21,2 -1,-1 v -8 l 6,-2 z"
     fill="#d6f9ff"
     id="path138" />
  <path
     d="m 553,398.90448 h 6 l 4,3 3,9 1,16 -3,9 -5,4 -2,1 h -8 l -6,-2 v -5 l 10,1 6,-3 3,-5 2,-6 v -12 h -2 l -2,-4 -6,-1 -11,5 1,-5 6,-4 z"
     fill="#155d90"
     id="path139" />
  <path
     d="m 1623,332.90448 5,2 3,6 -1,7 -3,5 -5,2 h -7 l -5,-5 2,-15 5,-1 v 8 l -1,7 h 2 l 2,-6 5,-1 v -5 z"
     fill="#d6f9ff"
     id="path140" />
  <path
     d="m 1241,413.90448 5,5 7,2 2,3 v 7 l -5,4 -7,1 -5,-5 -1,-3 v -7 l 1,-5 h 3 z"
     fill="#f8fcfd"
     id="path141" />
  <path
     d="m 695,181.90448 h 7 l 1,5 -1,12 -18,-1 -5,-2 v -8 l 10,1 4,-2 z"
     fill="#fafcfd"
     id="path142" />
  <path
     d="m 1593,332.90448 h 6 l 3,5 1,9 -3,6 -2,1 h -13 l -4,-3 -1,-15 5,-2 h 5 v 9 l -1,7 9,-2 2,-5 -3,-6 z"
     fill="#e7fafe"
     id="path143" />
  <path
     d="m 733,271.90448 h 17 l 2,3 v 11 h -19 z"
     fill="#fafcfd"
     id="path144" />
  <path
     d="m 733,189.90448 17,2 1,4 v 10 h -11 l -7,-2 -1,-3 v -10 z"
     fill="#f8fcfd"
     id="path145" />
  <path
     d="m 1445,416.90448 10,1 4,2 3,7 -1,6 -4,3 -7,-1 -5,-5 -1,-6 z"
     fill="#f9fcfd"
     id="path146" />
  <path
     d="m 699,399.90448 h 10 l 3,6 2,3 -2,8 v 22 l -4,1 -3,-2 1,-19 3,-15 -9,2 h -6 l 1,-5 z"
     fill="#155d90"
     id="path147" />
  <path
     d="m 646,182.90448 4,1 2,6 h 17 l 7,-1 1,8 -17,1 h -13 l -1,-4 z"
     fill="#f6fcfd"
     id="path148" />
  <path
     d="m 788,153.90448 h 3 v 9 l -2,-1 -3,2 h -24 l -4,-1 -1,15 h -1 v -17 l 9,-3 z"
     fill="#d6f9ff"
     id="path149" />
  <path
     d="m 172,412.90448 1,2 9,-1 3,3 -1,3 2,5 1,8 -1,3 -3,2 h -6 l -3,-3 3,-15 h -4 z"
     fill="#f7fcfd"
     id="path150" />
  <path
     d="m 624,418.90448 h 6 l 1,11 -5,5 -8,1 -4,-4 v -6 l 2,-3 v -3 z"
     fill="#f5fcfd"
     id="path151" />
  <path
     d="m 733,411.90448 h 7 l 1,4 3,1 -4,5 -5,2 -1,8 h 7 l 1,4 -10,1 -4,-2 1,-6 2,-5 -2,-3 v -6 z"
     fill="#e5fcff"
     id="path152" />
  <path
     d="m 1199,227.90448 h 1 v 29 l -1,6 1,2 1,21 h -5 l -1,-1 v -44 h 1 v 6 h 2 z"
     fill="#d6f9ff"
     id="path153" />
  <path
     d="m 157,401.90448 3,1 v 36 l -4,1 -1,-19 h -16 l -2,-1 1,-3 2,-1 h 16 l -1,-12 z"
     fill="#155d90"
     id="path154" />
  <path
     d="m 1646,327.90448 h 7 l 3,9 1,4 v 7 l -5,6 -10,1 -4,-3 1,-17 5,-2 -1,11 -1,8 h 5 l 5,-2 v -13 z"
     fill="#155d90"
     id="path155" />
  <path
     d="m 1541,328.90448 6,1 4,10 v 8 l -4,3 h -6 l -1,-2 v -16 z"
     fill="#f5fcfd"
     id="path156" />
  <path
     d="m 1287,399.90448 5,1 -1,5 -8,18 -6,11 -4,3 h -3 l 2,-6 11,-20 3,-11 z"
     fill="#155d90"
     id="path157" />
  <path
     d="m 789,183.90448 h 1 v 12 l -9,-1 -13,-2 -10,-1 -1,-5 5,1 h 14 l 10,-2 z"
     fill="#f7fcfd"
     id="path158" />
  <path
     d="m 613,327.90448 8,1 6,13 1,6 -1,2 h -7 l -4,-9 -1,-7 -3,-5 z"
     fill="#edfefe"
     id="path159" />
  <path
     d="m 767,408.90448 h 6 l 2,1 1,5 -12,-2 h -2 v 6 l 3,4 h 10 l 1,1 v 8 l -3,3 -4,-9 -8,1 -3,-1 v -13 l 2,-3 z"
     fill="#155d90"
     id="path160" />
  <path
     d="m 128,401.90448 5,1 1,14 1,2 h -2 v 20 l -4,1 -1,-1 z"
     fill="#155d90"
     id="path161" />
  <path
     d="m 840,411.90448 4,1 3,2 v 10 l -1,14 3,1 h -14 l 2,-5 4,-2 1,-3 1,-12 -4,2 -1,2 h -2 v -6 z"
     fill="#ecfefe"
     id="path162" />
  <path
     d="m 1375,80.90448 2,1 1,59 -1,-4 -3,-1 v -54 z"
     fill="#e5fbfe"
     id="path163" />
  <path
     d="m 614,190.90448 6,4 h 16 l 6,-2 v 6 l -9,2 -19,1 z"
     fill="#eefefe"
     id="path164" />
  <path
     d="m 970,397.90448 3,1 v 40 h -4 l -1,-26 1,-14 z"
     fill="#155d90"
     id="path165" />
  <path
     d="m 1028,319.90448 2,3 1,10 4,1 1,7 v 8 l -2,3 -6,-1 -1,-1 z"
     fill="#f6fcfd"
     id="path166" />
  <path
     d="m 764,411.90448 11,2 v 2 h 3 v 10 l -2,1 -1,-3 h -10 l -4,-5 1,-6 z"
     fill="#ecfeff"
     id="path167" />
  <path
     d="m 1644,332.90448 1,4 7,-2 1,2 v 11 l -3,3 -3,2 h -5 l -1,-2 z"
     fill="#ecfefe"
     id="path168" />
  <path
     d="m 71,327.90448 h 2 l 1,2 4,1 v 21 h -7 l -1,-1 z"
     fill="#fafcfd"
     id="path169" />
  <path
     d="m 952,410.90448 h 7 l 3,2 -10,4 -2,6 -2,16 -6,1 2,-7 v -17 z"
     fill="#155d90"
     id="path170" />
  <path
     d="m 1943,333.90448 4,1 1,1 v 14 l -7,3 -7,-1 -2,-2 -1,-7 1,-7 6,-1 -1,14 3,1 4,-1 z"
     fill="#155d90"
     id="path171" />
  <path
     d="m 604,407.90448 h 3 l 2,5 2,10 1,3 -2,5 -1,-3 -5,-1 -2,-4 -2,-1 v -12 z"
     fill="#edfeff"
     id="path172" />
  <path
     d="m 304,420.90448 5,2 2,3 v 7 l -4,4 h -8 l -3,-3 3,-5 4,-5 z"
     fill="#d6f9ff"
     id="path173" />
  <path
     d="m 758,194.90448 h 5 v 2 l 3,1 1,4 5,2 6,1 -1,3 -3,1 h -9 l -7,-1 -1,-10 z"
     fill="#e8fdfe"
     id="path174" />
  <path
     d="m 791,412.90448 10,1 1,2 v 7 l -3,2 1,5 -7,-1 v -5 l -4,-3 v -7 z"
     fill="#f9fcfd"
     id="path175" />
  <path
     d="m 1202,421.90448 h 2 v 10 l -4,6 -6,3 h -10 l -4,-4 -1,-3 14,1 6,-2 2,-10 z"
     fill="#155d90"
     id="path176" />
  <path
     d="m 1828,329.90448 h 2 v 19 l 7,-1 5,5 h -16 l -1,-1 -1,-20 z"
     fill="#155d90"
     id="path177" />
  <path
     d="m 619,403.90448 7,2 3,4 1,6 h -15 l -1,-6 3,-5 z"
     fill="#f2fcfd"
     id="path178" />
  <path
     d="m 269,423.90448 h 5 l 3,3 v 8 l -6,3 -6,-1 -2,-2 1,-5 z"
     fill="#d6f9ff"
     id="path179" />
  <path
     d="m 769,424.90448 2,4 1,1 v 6 l -3,1 h -9 l -3,-1 v -8 l 1,-1 z"
     fill="#f3fcfd"
     id="path180" />
  <path
     d="m 447,310.90448 h 8 l 1,15 -5,1 -3,-1 v 16 h -1 z"
     fill="#d6f9ff"
     id="path181" />
  <path
     d="m 851,143.90448 h 7 l 1,4 -5,3 -7,1 h -9 l -3,-3 -3,-2 z"
     fill="#d6f9ff"
     id="path182" />
  <path
     d="m 1593,333.90448 5,3 3,6 -2,5 -3,2 h -7 l 1,-14 z"
     fill="#f7fcfd"
     id="path183" />
  <path
     d="m 792,408.90448 h 9 l 2,6 -14,-1 1,7 4,3 -1,5 -6,-2 -2,-5 1,-8 4,-4 z"
     fill="#155d90"
     id="path184" />
  <path
     d="m 789,160.90448 2,2 -1,3 h -2 l -4,3 h -11 l -10,-1 -6,-4 1,-2 4,1 h 24 z"
     fill="#f0fefe"
     id="path185" />
  <path
     d="m 1918,326.90448 3,1 1,2 v 21 l -2,2 h -11 v -1 l 8,-2 v -11 l -1,-11 z"
     fill="#155d90"
     id="path186" />
  <path
     d="m 802,421.90448 h 1 l 2,10 v 5 l -3,3 -4,1 h -13 l -2,-5 11,1 7,-2 1,-2 -4,-5 1,-4 z"
     fill="#155d90"
     id="path187" />
  <path
     d="m 603,322.90448 5,1 3,12 -1,4 -4,1 -8,-3 4,-8 z"
     fill="#d1f5fc"
     id="path188" />
  <path
     d="m 458,325.90448 18,1 2,8 -20,-2 z"
     fill="#fcfdfd"
     id="path189" />
  <path
     d="m 158,309.90448 h 7 l 5,2 1,1 v 6 l -14,-1 -3,-4 -3,-2 z"
     fill="#e9fdff"
     id="path190" />
  <path
     d="m 1710,332.90448 h 2 l 3,12 v 8 l -2,1 h -8 l 3,-4 v -12 l -3,-3 z"
     fill="#155d90"
     id="path191" />
  <path
     d="m 260,411.90448 1,2 h 10 l 5,3 1,4 -8,2 -9,-1 -1,-8 z"
     fill="#d7f9ff"
     id="path192" />
  <path
     d="m 646,182.90448 4,1 2,6 h 17 l 7,-1 v 4 l -7,1 h -16 l -5,-3 -2,3 z"
     fill="#eefeff"
     id="path193" />
  <path
     d="m 695,181.90448 h 7 l -3,2 -1,7 -3,3 h -16 v -6 l 10,1 4,-2 z"
     fill="#f0fefe"
     id="path194" />
  <path
     d="m 113,316.90448 h 13 l 1,1 v 5 l -2,2 h -14 l 1,-7 z"
     fill="#155d90"
     id="path195" />
  <path
     d="m 487,225.90448 5,3 13,-1 6,-1 v 5 l -1,1 -18,2 h -5 z"
     fill="#f9fcfd"
     id="path196" />
  <path
     d="m 818,148.90448 h 7 v 1 l -6,1 -4,4 -12,2 -7,-3 v 19 h -1 v -20 l 9,-2 z"
     fill="#d6f9ff"
     id="path197" />
  <path
     d="m 1184,399.90448 h 12 l 5,3 3,7 v 6 l -3,-4 -4,-6 -3,-1 h -10 l -6,1 2,-4 z"
     fill="#155d90"
     id="path198" />
  <path
     d="m 589,336.90448 7,4 -2,8 -2,2 h -10 z"
     fill="#e9fdfe"
     id="path199" />
  <path
     d="m 506,216.90448 h 6 v 15 h -1 v -14 l -5,2 -1,5 h -12 l -1,-3 -5,-1 4,-2 z"
     fill="#d6f9ff"
     id="path200" />
  <path
     d="m 1003,308.90448 6,1 -2,29 h -1 l -1,-16 -3,-4 -1,7 h -1 v -15 z"
     fill="#d6f9ff"
     id="path201" />
  <path
     d="m 1593,332.90448 h 6 l 3,5 1,9 -3,6 -2,1 h -13 l 3,-3 10,-3 2,-5 -3,-6 z"
     fill="#155d90"
     id="path202" />
  <path
     d="m 1890,325.90448 h 5 l 1,2 -4,24 -5,1 2,-7 z"
     fill="#155d90"
     id="path203" />
  <path
     d="m 349,310.90448 h 18 l 1,1 v 6 l -16,-1 -3,-4 z"
     fill="#e8fdff"
     id="path204" />
  <path
     d="m 448,331.90448 4,4 2,1 v 14 l -4,1 -3,-1 v -9 z"
     fill="#fbfcfd"
     id="path205" />
  <path
     d="m 499,340.90448 5,1 2,6 -1,5 h -8 l -2,-2 2,-9 z"
     fill="#d6f9ff"
     id="path206" />
  <path
     d="m 1669,332.90448 3,1 1,5 -1,16 h -5 l -1,-2 1,-11 v -8 z"
     fill="#155d90"
     id="path207" />
  <path
     d="m 1154,118.90448 4,1 -6,7 2,1 -13,-1 -2,-1 v -4 z"
     fill="#d6f9ff"
     id="path208" />
  <path
     d="m 519,327.90448 h 9 l 2,2 v 10 h -5 l -4,-6 -3,-5 z"
     fill="#f3fcfd"
     id="path209" />
  <path
     d="m 1747,334.90448 3,1 v 12 l -2,5 h -9 l 4,-5 3,-12 z"
     fill="#155d90"
     id="path210" />
  <path
     d="m 779,410.90448 4,1 3,3 v 7 l 1,5 -2,7 -2,1 -1,-4 -1,-14 -4,-2 v -3 z"
     fill="#eefeff"
     id="path211" />
  <path
     d="m 656,411.90448 4,1 1,3 v 9 l -2,2 -4,-1 -2,-3 1,-8 z"
     fill="#f0ffff"
     id="path212" />
  <path
     d="m 71,318.90448 2,1 v 2 l 6,-2 v 30 h -1 v -19 l -5,-1 v -2 h -2 z"
     fill="#eafdfe"
     id="path213" />
  <path
     d="m 786,217.90448 h 4 l 1,9 4,2 h -14 l -1,4 v -9 l 4,-2 1,1 z"
     fill="#c5ebf5"
     id="path214" />
  <path
     d="m 733,189.90448 17,2 -1,2 h -2 l 1,4 -3,2 -5,-1 -6,-6 -1,8 h -1 v -10 z"
     fill="#e8fdff"
     id="path215" />
  <path
     d="m 477,220.90448 h 5 v 19 h -1 l -1,-11 -5,2 -3,-3 1,-5 -4,-1 z"
     fill="#e7fcfe"
     id="path216" />
  <path
     d="m 1771,333.90448 5,1 1,2 v 12 l -2,4 -8,1 -2,-2 6,-2 1,-2 v -11 z"
     fill="#155d90"
     id="path217" />
  <path
     d="m 1199,227.90448 h 1 v 29 h -2 l -1,3 -2,-2 v -17 h 1 v 6 h 2 z"
     fill="#e5fbfe"
     id="path218" />
  <path
     d="m 589,407.90448 h 1 l -1,15 3,1 -2,3 -8,4 -5,1 -1,-5 4,-1 1,-2 v 2 l 6,-2 v -12 z"
     fill="#edfeff"
     id="path219" />
  <path
     d="m 824,411.90448 h 5 l 4,6 -8,5 -5,-5 -1,4 1,-7 z"
     fill="#d6f9ff"
     id="path220" />
  <path
     d="m 789,183.90448 1,2 -4,4 -19,2 h -9 l -1,-5 5,1 h 14 l 10,-2 z"
     fill="#edfeff"
     id="path221" />
  <path
     d="m 1685,333.90448 2,1 -1,8 1,10 h -6 v -13 l -1,-5 z"
     fill="#155d90"
     id="path222" />
  <path
     d="m 1798,332.90448 h 6 l 1,3 1,17 h -5 v -12 z"
     fill="#155d90"
     id="path223" />
  <path
     d="m 1623,332.90448 5,2 3,6 -1,7 -3,5 -6,2 -2,-2 6,-4 1,-2 v -8 l -3,-4 z"
     fill="#155d90"
     id="path224" />
  <path
     d="m 1622,332.90448 4,4 v 6 h -5 l -3,6 h -2 l 1,-15 2,2 z"
     fill="#ebfdff"
     id="path225" />
  <path
     d="m 1567,333.90448 h 4 l -1,11 -2,7 -4,1 2,-18 z"
     fill="#155d90"
     id="path226" />
  <path
     d="m 1864,333.90448 h 3 v 11 l -1,7 -5,-2 1,-15 z"
     fill="#155d90"
     id="path227" />
  <path
     d="m 1788,332.90448 h 5 l -4,21 -6,-1 3,-6 z"
     fill="#155d90"
     id="path228" />
  <path
     d="m 764,411.90448 10,2 -5,5 -3,4 -4,-2 -1,-6 z"
     fill="#f6fcfd"
     id="path229" />
  <path
     d="m 1874,332.90448 3,1 2,3 v 11 l -2,3 -9,1 3,-2 h 2 l 1,-6 z"
     fill="#155d90"
     id="path230" />
  <path
     d="m 561,408.90448 1,4 -5,9 -4,3 h -2 l 2,-9 5,-5 z"
     fill="#155d90"
     id="path231" />
  <path
     d="m 1613,333.90448 h 4 v 8 l -4,10 h -2 l -1,-4 2,-13 z"
     fill="#155d90"
     id="path232" />
  <path
     d="m 1028,319.90448 2,3 1,10 4,1 v 6 l -5,2 -2,-1 z"
     fill="#f0ffff"
     id="path233" />
  <path
     d="m 1269,399.90448 h 10 l 5,2 -2,2 -4,1 h -11 v -4 z"
     fill="#155d90"
     id="path234" />
  <path
     d="m 1241,151.90448 h 16 v 6 l -15,-2 -2,-3 z"
     fill="#d6f9ff"
     id="path235" />
  <path
     d="m 1190,413.90448 h 5 l 3,3 -1,5 -5,1 -4,-4 1,-4 z"
     fill="#155d90"
     id="path236" />
  <path
     d="m 1764,333.90448 3,1 -2,15 -2,3 h -2 v -12 l 1,-6 z"
     fill="#155d90"
     id="path237" />
  <path
     d="m 1850,331.90448 3,1 v 13 l -2,7 -1,1 h -5 l 2,-3 h 2 z"
     fill="#155d90"
     id="path238" />
  <path
     d="m 54,310.90448 h 15 l -2,1 v 4 l 2,1 h -7 l -8,-3 z"
     fill="#f6fcfd"
     id="path239" />
  <path
     d="m 756,434.90448 4,1 14,1 -1,3 -2,1 h -12 l -3,-3 z"
     fill="#155d90"
     id="path240" />
  <path
     d="m 172,412.90448 1,2 9,-1 3,3 v 2 l -5,1 -2,-1 v 5 l -1,-4 h -4 z"
     fill="#d6f9ff"
     id="path241" />
  <path
     d="m 108,417.90448 h 6 l 2,2 -1,7 h -4 l -1,-6 -3,5 -2,-1 v -5 z"
     fill="#155d90"
     id="path242" />
  <path
     d="m 614,193.90448 6,3 11,2 -4,2 -5,1 h -8 z"
     fill="#f6fcfd"
     id="path243" />
  <path
     d="m 1200,409.90448 3,4 2,7 -4,2 -4,-2 -1,-5 -1,-2 h 4 z"
     fill="#d6f9ff"
     id="path244" />
  <path
     d="m 1043,310.90448 h 12 l -1,5 h -12 z"
     fill="#f0ffff"
     id="path245" />
  <path
     d="m 605,328.90448 4,2 2,5 -1,4 -4,1 -2,-4 z"
     fill="#f1fbfd"
     id="path246" />
  <path
     d="m 264,429.90448 3,1 1,2 7,-1 v 3 l -1,2 -6,1 -5,-3 z"
     fill="#eafdff"
     id="path247" />
  <path
     d="m 1196,270.90448 3,1 v 8 h 2 v 6 h -5 z"
     fill="#f4fcfd"
     id="path248" />
  <path
     d="m 1904,335.90448 h 3 l 1,2 1,14 -4,-2 -1,-4 z"
     fill="#155d90"
     id="path249" />
  <path
     d="m 703,322.90448 4,2 1,3 v 17 l -3,4 -1,-4 1,-1 1,-14 z"
     fill="#d6f9ff"
     id="path250" />
  <path
     d="m 457,211.90448 5,3 8,1 1,2 -2,1 -12,1 z"
     fill="#edfdfe"
     id="path251" />
  <path
     d="m 513,328.90448 3,1 1,8 -1,2 -4,-1 -1,-1 v -7 z"
     fill="#ecfbfd"
     id="path252" />
  <path
     d="m 732,425.90448 h 1 l 1,7 2,1 v 3 l -7,-1 -1,-5 2,-4 z"
     fill="#f6fcfd"
     id="path253" />
  <path
     d="m 550,326.90448 h 7 l 2,4 3,2 -10,1 -2,-2 z"
     fill="#f0fefe"
     id="path254" />
  <path
     d="m 357,311.90448 h 11 v 6 l -11,-2 z"
     fill="#f7fcfd"
     id="path255" />
  <path
     d="m 575,202.90448 h 17 v 2 l -19,2 v -3 z"
     fill="#e7fcfe"
     id="path256" />
  <path
     d="m 890,137.90448 h 6 l -2,1 -2,5 h -7 l -1,-5 z"
     fill="#d6f9ff"
     id="path257" />
  <path
     d="m 93,432.90448 4,1 1,4 -2,2 -7,-1 1,-4 z"
     fill="#155d90"
     id="path258" />
  <path
     d="m 101,322.90448 h 1 l -1,22 h -2 v -18 z"
     fill="#e5fcff"
     id="path259" />
  <path
     d="m 1580,335.90448 h 3 l 2,17 -4,-2 z"
     fill="#155d90"
     id="path260" />
  <path
     d="m 1690,334.90448 h 14 l -5,7 -2,-1 1,-4 -2,1 -2,3 z"
     fill="#155d90"
     id="path261" />
  <path
     d="m 745,434.90448 12,3 v 2 l -9,1 -4,-4 z"
     fill="#effeff"
     id="path262" />
  <path
     d="m 737,312.90448 h 2 v 9 l -2,9 h -1 v -16 z"
     fill="#f0fefe"
     id="path263" />
  <path
     d="m 478,311.90448 h 7 v 4 h -4 l -2,7 h -1 z"
     fill="#f1fefe"
     id="path264" />
  <path
     d="m 185,424.90448 h 1 v 6 l -6,2 -1,-1 v -6 l 5,1 z"
     fill="#edfeff"
     id="path265" />
  <path
     d="m 820,417.90448 4,2 1,4 -4,4 -2,-1 z"
     fill="#effeff"
     id="path266" />
  <path
     d="m 1652,336.90448 h 1 v 11 l -6,-3 v -5 h 5 z"
     fill="#d6f9ff"
     id="path267" />
  <path
     d="m 766,345.90448 9,3 1,3 h -8 l -2,-2 z"
     fill="#f0fdfe"
     id="path268" />
  <path
     d="m 712,400.90448 h 9 l -2,5 -4,2 v -3 l -3,-1 z"
     fill="#155d90"
     id="path269" />
  <path
     d="m 589,407.90448 h 1 l -1,15 3,1 -2,3 -5,-1 2,-2 v -12 z"
     fill="#d6f9ff"
     id="path270" />
  <path
     d="m 529,329.90448 h 1 v 10 h -5 l -2,-5 h 5 z"
     fill="#d6f9ff"
     id="path271" />
  <path
     d="m 1735,334.90448 h 2 v 13 l -3,3 v -15 z"
     fill="#155d90"
     id="path272" />
  <path
     d="m 800,326.90448 6,1 3,3 -1,3 -6,-1 z"
     fill="#edfefe"
     id="path273" />
  <path
     d="m 775,434.90448 1,2 8,1 1,3 h -9 l -3,-1 v -2 h 2 z"
     fill="#ecfeff"
     id="path274" />
  <path
     d="m 791,412.90448 10,1 v 1 h -5 v 2 h -6 l -1,4 v -7 z"
     fill="#e4fcff"
     id="path275" />
  <path
     d="m 610,411.90448 4,5 -1,6 h -2 l -1,2 -1,-11 z"
     fill="#f3fcfd"
     id="path276" />
  <path
     d="m 786,340.90448 4,1 2,2 -1,4 -4,2 z"
     fill="#e5fcff"
     id="path277" />
  <path
     d="m 301,415.90448 h 5 l 2,4 -5,2 -3,-1 z"
     fill="#fcfdfd"
     id="path278" />
  <path
     d="m 709,399.90448 h 11 v 1 h -8 v 3 l 4,1 -2,4 -4,-4 z"
     fill="#d7f9ff"
     id="path279" />
  <path
     d="m 1374,122.90448 3,3 1,15 -1,-4 -3,-1 z"
     fill="#d6f9ff"
     id="path280" />
  <path
     d="m 793,422.90448 h 5 l 2,7 -7,-1 z"
     fill="#defbff"
     id="path281" />
  <path
     d="m 1585,333.90448 h 5 v 9 l -2,1 v -6 l 1,-2 h -3 l -1,5 -1,-4 z"
     fill="#7bafca"
     id="path282" />
  <path
     d="m 789,183.90448 1,2 -4,4 h -10 l 1,-2 9,-2 z"
     fill="#f0ffff"
     id="path283" />
  <path
     d="m 873,429.90448 3,1 1,6 h -4 l -1,-1 v -5 z"
     fill="#f0ffff"
     id="path284" />
  <path
     d="m 195,425.90448 4,2 1,4 -2,2 h -3 l -1,-4 z"
     fill="#f0ffff"
     id="path285" />
  <path
     d="m 473,326.90448 h 3 l 2,8 -7,-2 z"
     fill="#eefeff"
     id="path286" />
  <path
     d="m 412,345.90448 4,1 -1,4 h -6 v -4 z"
     fill="#e9fdff"
     id="path287" />
  <path
     d="m 1576,118.90448 h 3 v 10 h -3 z"
     fill="#f0ffff"
     id="path288" />
  <path
     d="m 603,316.90448 5,1 1,3 -2,2 h -4 z"
     fill="#f0ffff"
     id="path289" />
  <path
     d="m 410,310.90448 h 5 l 1,3 -5,2 -2,2 -1,-6 z"
     fill="#ebfdfe"
     id="path290" />
  <path
     d="m 1049,310.90448 h 6 l -1,5 h -5 z"
     fill="#f8fcfd"
     id="path291" />
  <path
     d="m 733,431.90448 h 8 l 1,4 h -6 v -2 l -3,-1 z"
     fill="#edfeff"
     id="path292" />
  <path
     d="m 1643,346.90448 4,2 v 4 h -5 l -1,-2 z"
     fill="#f7fcfd"
     id="path293" />
  <path
     d="m 694,202.90448 h 8 l -2,1 -2,4 -4,-1 z"
     fill="#ecfeff"
     id="path294" />
  <path
     d="m 730,415.90448 h 4 v 7 l -4,-1 z"
     fill="#fbfcfd"
     id="path295" />
  <path
     d="m 618,343.90448 5,2 3,1 -1,3 h -5 z"
     fill="#f8fcfd"
     id="path296" />
  <path
     d="m 605,322.90448 3,1 1,7 -5,-1 v -6 z"
     fill="#155d90"
     id="path297" />
  <path
     d="m 64,310.90448 h 5 l -2,1 v 4 l 2,1 h -7 z"
     fill="#edfeff"
     id="path298" />
  <path
     d="m 759,198.90448 4,5 3,3 h -7 z"
     fill="#fdfdfd"
     id="path299" />
  <path
     d="m 1195,160.90448 h 9 l -1,3 h -6 l -3,1 z"
     fill="#d6f9ff"
     id="path300" />
</svg>
